HIERARCHY
ROOT Hips
{
	OFFSET -0.001795 -0.223333 0.028219
	CHANNELS 6 Xposition Yposition Zposition Zrotation Yrotation Xrotation 
	JOINT LeftUpLeg
	{
		OFFSET 0.069520 -0.091406 -0.006815
		CHANNELS 3 Zrotation Yrotation Xrotation
		JOINT LeftLeg
		{
			OFFSET 0.034277 -0.375199 -0.004496
			CHANNELS 3 Zrotation Yrotation Xrotation
			JOINT LeftFoot
			{
				OFFSET -0.013596 -0.397961 -0.043693
				CHANNELS 3 Zrotation Yrotation Xrotation
				JOINT LeftToe
				{
					OFFSET 0.026358 -0.055791 0.119288
					CHANNELS 3 Zrotation Yrotation Xrotation
					End Site
					{
						OFFSET 0.000000 0.000000 0.000000
					}
				}
			}
		}
	}
	JOINT RightUpLeg
	{
		OFFSET -0.067670 -0.090522 -0.004320
		CHANNELS 3 Zrotation Yrotation Xrotation
		JOINT RightLeg
		{
			OFFSET -0.038290 -0.382569 -0.008850
			CHANNELS 3 Zrotation Yrotation Xrotation
			JOINT RightFoot
			{
				OFFSET 0.015774 -0.398415 -0.042312
				CHANNELS 3 Zrotation Yrotation Xrotation
				JOINT RightToe
				{
					OFFSET -0.025372 -0.048144 0.123348
					CHANNELS 3 Zrotation Yrotation Xrotation
					End Site
					{
						OFFSET 0.000000 0.000000 0.000000
					}
				}
			}
		}
	}
	JOINT Spine
	{
		OFFSET -0.002533 0.108963 -0.026696
		CHANNELS 3 Zrotation Yrotation Xrotation
		JOINT Spine1
		{
			OFFSET 0.005487 0.135180 0.001092
			CHANNELS 3 Zrotation Yrotation Xrotation
			JOINT Spine2
			{
				OFFSET 0.001457 0.052922 0.025425
				CHANNELS 3 Zrotation Yrotation Xrotation
				JOINT Neck
				{
					OFFSET -0.002778 0.213870 -0.042857
					CHANNELS 3 Zrotation Yrotation Xrotation
					JOINT Head
					{
						OFFSET 0.005152 0.064970 0.051349
						CHANNELS 3 Zrotation Yrotation Xrotation
						End Site
						{
							OFFSET 0.000000 0.000000 0.000000
						}
					}
				}
				JOINT LeftShoulder
				{
					OFFSET 0.078845 0.121749 -0.034090
					CHANNELS 3 Zrotation Yrotation Xrotation
					JOINT LeftArm
					{
						OFFSET 0.090977 0.030469 -0.008868
						CHANNELS 3 Zrotation Yrotation Xrotation
						JOINT LeftForeArm
						{
							OFFSET 0.259612 -0.012772 -0.027456
							CHANNELS 3 Zrotation Yrotation Xrotation
							JOINT LeftHand
							{
								OFFSET 0.249234 0.008986 -0.001171
								CHANNELS 3 Zrotation Yrotation Xrotation
								End Site
								{
									OFFSET 0.000000 0.000000 0.000000
								}
							}
						}
					}
				}
				JOINT RightShoulder
				{
					OFFSET -0.081759 0.118833 -0.038615
					CHANNELS 3 Zrotation Yrotation Xrotation
					JOINT RightArm
					{
						OFFSET -0.096012 0.032551 -0.009143
						CHANNELS 3 Zrotation Yrotation Xrotation
						JOINT RightForeArm
						{
							OFFSET -0.253742 -0.013329 -0.021401
							CHANNELS 3 Zrotation Yrotation Xrotation
							JOINT RightHand
							{
								OFFSET -0.255298 0.007772 -0.005559
								CHANNELS 3 Zrotation Yrotation Xrotation
								End Site
								{
									OFFSET 0.000000 0.000000 0.000000
								}
							}
						}
					}
				}
			}
		}
	}
}
MOTION
Frames: 7
Frame Time: 0.050000
0.014019 0.953638 -0.021013 -2.458529 -5.097933 1.984570 9.675720 0.040840 5.908126 -4.425005 0.515481 -10.782860 1.917488 8.008043 15.616377 0.000000 0.000000 0.000000 -2.744391 -0.088886 2.682370 0.144039 -0.299315 -8.082250 0.267204 -7.143494 17.907613 0.000000 0.000000 0.000000 -1.330656 -0.118937 4.876814 4.316426 -0.259575 -27.313825 -4.255335 -1.280444 25.745882 5.851491 -2.611375 -24.691006 0.000000 0.000000 0.000000 -17.205103 7.923720 -4.365113 -32.703306 -20.135303 -0.764728 -151.333107 -62.313733 144.647353 0.000000 0.000000 0.000000 -6.672854 -4.224498 -0.632813 -0.761826 21.671805 -1.753928 -58.842367 12.663169 -7.374060 0.000000 0.000000 0.000000 
0.013802 0.953992 -0.020572 -2.480412 -4.934955 1.646865 9.702851 0.044511 6.035828 -4.212034 0.505430 -10.377085 1.711984 7.673473 15.398374 0.000000 0.000000 0.000000 -2.791654 -0.126208 3.211906 0.579141 -0.315438 -8.245767 0.143033 -7.345654 17.995745 0.000000 0.000000 0.000000 -0.973472 -0.160217 5.509232 3.863890 -0.186068 -27.071623 -4.300722 -1.295759 25.377896 5.760719 -2.592260 -24.255480 0.000000 0.000000 0.000000 -17.956858 7.821590 -4.418078 -31.622016 -17.778350 -1.338237 -148.806036 -62.120408 140.215711 0.000000 0.000000 0.000000 -7.091846 -4.947174 -0.794955 -1.358540 19.447589 -1.556235 -57.167402 9.346383 -5.400633 0.000000 0.000000 0.000000 
0.013642 0.954278 -0.020531 -2.350508 -4.998552 1.548285 9.769487 0.047349 6.125231 -4.279734 0.507254 -10.060715 1.628415 7.443795 14.954902 0.000000 0.000000 0.000000 -2.958227 -0.115955 3.226597 0.775151 -0.307703 -7.789168 0.110929 -7.375020 17.882657 0.000000 0.000000 0.000000 -1.055904 -0.170013 6.055438 3.667205 -0.144712 -27.088355 -4.395600 -1.572370 25.235108 5.646516 -2.614646 -23.879755 0.000000 0.000000 0.000000 -18.489067 8.635852 -4.873015 -31.221424 -16.129176 -1.728899 -145.588041 -61.627318 134.996659 0.000000 0.000000 0.000000 -7.646899 -5.615071 -0.884139 -1.212198 18.000847 -1.405412 -57.545655 7.743018 -4.724694 0.000000 0.000000 0.000000 
0.013512 0.954799 -0.020829 -2.326664 -4.946806 1.621244 9.732225 0.042343 5.924940 -4.276227 0.504961 -9.773341 1.383211 7.046212 14.864146 0.000000 0.000000 0.000000 -3.143629 -0.099126 3.161540 1.000878 -0.316156 -7.873659 0.097633 -7.287468 17.555576 0.000000 0.000000 0.000000 -1.035906 -0.184738 6.552592 3.810792 -0.171117 -27.125357 -4.652783 -1.710870 24.817935 5.873330 -2.712957 -24.140726 0.000000 0.000000 0.000000 -19.040325 8.963226 -5.128016 -30.558902 -13.976273 -2.160824 -143.336242 -60.943134 130.800616 0.000000 0.000000 0.000000 -7.452169 -6.088811 -1.029575 -1.387766 16.869699 -1.295427 -59.413976 6.296920 -4.201429 0.000000 0.000000 0.000000 
0.013458 0.954854 -0.021426 -2.159534 -5.265821 1.642033 9.475845 0.064906 5.876859 -4.161774 0.503693 -9.441080 1.351474 6.909351 14.662814 0.000000 0.000000 0.000000 -3.305591 -0.074225 3.000773 1.097995 -0.308514 -7.538565 0.155818 -7.140353 17.221657 0.000000 0.000000 0.000000 -1.041830 -0.185695 6.673402 3.777894 -0.190328 -26.751622 -4.637743 -1.572081 24.588807 5.836906 -2.698934 -24.061168 0.000000 0.000000 0.000000 -19.071759 9.491108 -5.432037 -30.412501 -13.014609 -2.345278 -141.948286 -60.447113 128.252131 0.000000 0.000000 0.000000 -7.339352 -6.346494 -1.109249 -1.555835 15.802462 -1.192268 -61.565249 5.478841 -4.012128 0.000000 0.000000 0.000000 
0.013466 0.954804 -0.022139 -1.954309 -5.387270 1.818797 9.306240 0.071030 5.766069 -4.337232 0.512127 -9.362736 1.285561 6.767715 14.575444 0.000000 0.000000 0.000000 -3.490550 -0.034486 2.612403 0.977464 -0.290606 -6.981750 0.121860 -7.061699 16.718164 0.000000 0.000000 0.000000 -1.219872 -0.171425 6.708833 4.004886 -0.249100 -26.579356 -4.778218 -1.413120 24.384357 6.176224 -2.888177 -23.955739 0.000000 0.000000 0.000000 -19.265277 9.563476 -5.528116 -30.052220 -12.302405 -2.459878 -140.714344 -60.653546 126.462178 0.000000 0.000000 0.000000 -7.492357 -6.391522 -1.103766 -2.146054 15.058424 -1.127620 -62.253251 4.291585 -3.404859 0.000000 0.000000 0.000000 
0.013499 0.954684 -0.022845 -1.932374 -5.355252 1.849593 9.257749 0.071404 5.752996 -4.305788 0.509930 -9.228065 1.288699 6.732828 14.385846 0.000000 0.000000 0.000000 -3.437729 -0.028055 2.458665 0.746448 -0.279577 -6.849048 0.051259 -7.103883 16.479851 0.000000 0.000000 0.000000 -1.055373 -0.189625 6.931671 4.068305 -0.252241 -26.715396 -4.867135 -1.121851 24.521490 6.406568 -2.971237 -24.066592 0.000000 0.000000 0.000000 -19.443513 9.701035 -5.692886 -30.115618 -12.280031 -2.465357 -139.686770 -60.592805 124.746520 0.000000 0.000000 0.000000 -7.720906 -6.484941 -1.129899 -2.923926 14.662901 -1.096104 -62.319751 2.831889 -2.532232 0.000000 0.000000 0.000000 
